<?xml version="1.0" standalone="no"?><!DOCTYPE svg PUBLIC "-//W3C//DTD SVG 1.1//EN" "http://www.w3.org/Graphics/SVG/1.1/DTD/svg11.dtd"><svg t="1675929928850" class="icon" viewBox="0 0 1024 1024" version="1.1" xmlns="http://www.w3.org/2000/svg" p-id="2892" xmlns:xlink="http://www.w3.org/1999/xlink" width="200" height="200"><path d="M181.94 283.494m-181.94 0a181.94 181.94 0 1 0 363.88 0 181.94 181.94 0 1 0-363.88 0Z" fill="#C27C59" p-id="2893"></path><path d="M181.94 283.494m-87.748 0a87.748 87.748 0 1 0 175.496 0 87.748 87.748 0 1 0-175.496 0Z" fill="#FFDAB5" p-id="2894"></path><path d="M842.06 283.494m-181.94 0a181.94 181.94 0 1 0 363.88 0 181.94 181.94 0 1 0-363.88 0Z" fill="#C27C59" p-id="2895"></path><path d="M181.94 283.494m-181.94 0a181.94 181.94 0 1 0 363.88 0 181.94 181.94 0 1 0-363.88 0Z" opacity=".1" p-id="2896"></path><path d="M842.06 283.494m-181.94 0a181.94 181.94 0 1 0 363.88 0 181.94 181.94 0 1 0-363.88 0Z" opacity=".1" p-id="2897"></path><path d="M842.06 283.494m-87.748 0a87.748 87.748 0 1 0 175.496 0 87.748 87.748 0 1 0-175.496 0Z" fill="#FFDAB5" p-id="2898"></path><path d="M866.08 260.792c-49.314-36.04-108.198-62.782-174.462-79.666-19.884 29.164-31.514 64.404-31.514 102.364 0 100.486 81.46 181.948 181.948 181.948 56.558 0 107.088-25.806 140.46-66.286-25.416-53.724-64.484-100.396-116.432-138.36zM332.382 181.128c-66.264 16.884-125.148 43.626-174.462 79.666-51.948 37.964-91.014 84.634-116.43 138.36 33.372 40.48 83.902 66.286 140.46 66.286 100.488 0 181.948-81.46 181.948-181.948-0.002-37.96-11.632-73.2-31.516-102.364z" opacity=".05" p-id="2899"></path><path d="M512 922.446c260.834 0 465.334-128.218 465.334-361.3S772.834 199.846 512 199.846 46.666 328.062 46.666 561.146 251.166 922.446 512 922.446z" fill="#C27C59" p-id="2900"></path><path d="M660.104 615.146c0-81.796-66.308-195.206-148.104-195.206s-148.104 113.41-148.104 195.206 66.308 121.716 148.104 121.716 148.104-39.92 148.104-121.716z" fill="#FFDAB5" p-id="2901"></path><path d="M184.968 590.396a79.912 63.638 0 1 0 159.824 0 79.912 63.638 0 1 0-159.824 0Z" fill="#FFA6BB" p-id="2902"></path><path d="M278.24 530.26a15 15 0 0 1-15-15v-34.3c0-8.286 6.716-15 15-15s15 6.714 15 15v34.3a15 15 0 0 1-15 15z" fill="#414B58" p-id="2903"></path><path d="M679.208 590.396a79.912 63.638 0 1 0 159.824 0 79.912 63.638 0 1 0-159.824 0Z" fill="#FFA6BB" p-id="2904"></path><path d="M745.76 530.26a15 15 0 0 1-15-15v-34.3c0-8.286 6.716-15 15-15s15 6.714 15 15v34.3a15 15 0 0 1-15 15zM512 672.284c-31.976 0-57.898-25.922-57.898-57.898v-42.092a15.804 15.804 0 0 1 15.804-15.804h84.184a15.804 15.804 0 0 1 15.804 15.804v42.092c0.004 31.976-25.918 57.898-57.894 57.898zM531.892 488.312a78.54 78.54 0 0 0-39.782 0 23.09 23.09 0 0 0-13.246 9.354c-4.24 6.234-1.802 14.786 5.086 17.85l19.11 8.498a21.998 21.998 0 0 0 17.882 0l19.11-8.498c6.89-3.064 9.326-11.614 5.086-17.85a23.09 23.09 0 0 0-13.246-9.354z" fill="#414B58" p-id="2905"></path><path d="M432.656 203.996C210.868 227.658 46.666 352.294 46.666 561.146c0 233.082 204.5 361.3 465.334 361.3 48.776 0 95.58-4.486 139.446-13.3-685.618-172.574-374.052-629.618-218.79-705.15z" opacity=".1" p-id="2906"></path></svg>